<svg xmlns="http://www.w3.org/2000/svg" viewBox="0 0 64 64">
  <rect width="64" height="64" rx="16" fill="#071a2a" />
  <g transform="translate(12, 12) scale(1.666)">
    <path d="M21 16V8a2 2 0 0 0-1-1.73l-7-4a2 2 0 0 0-2 0l-7 4A2 2 0 0 0 3 8v8a2 2 0 0 0 1 1.73l7 4a2 2 0 0 0 2 0l7-4A2 2 0 0 0 21 16z" fill="none" stroke="#EAB308" stroke-width="2" stroke-linecap="round" stroke-linejoin="round"/>
    <polyline points="3.29 7 12 12 20.71 7" fill="none" stroke="#EAB308" stroke-width="2" stroke-linecap="round" stroke-linejoin="round"/>
    <line x1="12" y1="22" x2="12" y2="12" fill="none" stroke="#EAB308" stroke-width="2" stroke-linecap="round" stroke-linejoin="round"/>
  </g>
</svg>